<svg width="200" height="200" viewBox="0 0 200 200" fill="none" xmlns="http://www.w3.org/2000/svg">
<path fill-rule="evenodd" clip-rule="evenodd" d="M89.8496 61.667C84.6834 61.667 80.5061 63.402 77.6106 66.2845C74.7457 69.1361 73.3335 72.9219 73.3335 76.667C73.3335 80.4121 74.7457 84.1979 77.6106 87.0495C77.8088 87.2464 78.0129 87.4385 78.2228 87.6257C78.5003 87.8714 78.7882 88.1074 79.0861 88.3337C78.8197 88.5355 78.5616 88.7455 78.3115 88.9635C78.0702 89.1751 77.8365 89.3932 77.6106 89.6178C74.7457 92.4694 73.3335 96.2553 73.3335 100C73.3335 103.745 74.7457 107.531 77.6106 110.383C78.0434 110.814 78.5046 111.218 78.9935 111.595C77.0086 113.176 75.4512 115.236 74.4753 117.593C73.34 120.334 73.043 123.35 73.6218 126.26C74.2006 129.17 75.629 131.843 77.7268 133.941C79.8248 136.039 82.4975 137.466 85.4071 138.046C88.3168 138.625 91.3328 138.327 94.0738 137.191C96.8148 136.057 99.1572 134.134 100.805 131.667C102.454 129.201 103.333 126.301 103.333 123.334V112.474C105.717 114.069 108.583 115 111.667 115C119.951 115 126.667 108.285 126.667 100C126.667 95.2477 124.456 91.0111 121.007 88.2621C121.496 87.8844 121.957 87.4808 122.39 87.0495C125.255 84.1979 126.667 80.4121 126.667 76.667C126.667 72.9219 125.255 69.1361 122.39 66.2845C119.494 63.402 115.317 61.667 110.151 61.667H89.8496ZM96.6668 91.667H89.8496C86.2272 91.667 83.8132 92.8486 82.3144 94.341C80.7851 95.8647 80.0002 97.912 80.0002 100C80.0002 102.089 80.7851 104.136 82.3144 105.66C83.8132 107.152 86.2274 108.334 89.8496 108.334H96.6668V91.667ZM83.7321 116.447C85.094 115.537 86.6953 115 88.3335 115C88.3335 115 89.6057 115 89.8496 115H96.6668V123.334C96.6668 124.971 96.1305 126.573 95.2202 127.935C94.3102 129.297 93.0165 130.358 91.5031 130.985C89.9896 131.613 88.3243 131.776 86.7177 131.457C85.111 131.138 83.6352 130.349 82.4768 129.19C81.3185 128.033 80.5297 126.556 80.2101 124.95C79.8905 123.343 80.0545 121.677 80.6815 120.165C81.3084 118.651 82.37 117.357 83.7321 116.447ZM103.333 85.0003H110.151C113.773 85.0003 116.187 83.8187 117.686 82.3262C119.215 80.8027 120 78.7552 120 76.667C120 74.5788 119.215 72.5313 117.686 71.0078C116.187 69.5153 113.773 68.3337 110.151 68.3337H103.333V85.0003ZM96.6668 85.0003H89.8496C86.2274 85.0003 83.8132 83.8187 82.3144 82.3262C80.7851 80.8027 80.0002 78.7552 80.0002 76.667C80.0002 74.5788 80.7851 72.5313 82.3144 71.0078C83.8132 69.5153 86.2272 68.3337 89.8496 68.3337H96.6668V85.0003ZM111.667 108.283C107.092 108.283 103.384 104.574 103.384 100C103.384 95.4267 107.092 91.7175 111.667 91.7175C116.241 91.7175 119.949 95.4267 119.949 100C119.949 104.574 116.241 108.283 111.667 108.283Z" fill="white"/>
</svg>
