<svg width="200" height="200" viewBox="0 0 200 200" fill="none" xmlns="http://www.w3.org/2000/svg">
<g clip-path="url(#clip0_121_476)">
<path d="M114.521 124.223C110.584 125.725 106.026 126.596 101.269 126.596C100.713 126.596 100.161 126.584 99.6089 126.561L99.6856 126.565C99.2294 126.584 98.6927 126.596 98.1522 126.596C93.3107 126.596 88.6724 125.725 84.3829 124.138L84.6589 124.227L87.3537 128.723L88.4347 143.11C88.4347 143.948 89.5439 144.637 91.7621 145.176C94.0122 145.701 96.5997 146.004 99.2562 146.004C99.4364 146.004 99.6204 146.004 99.8006 146H99.7737C99.9424 146.004 100.146 146.004 100.345 146.004C102.978 146.004 105.543 145.709 108.004 145.145L107.774 145.191C109.992 144.652 111.101 143.963 111.101 143.125L111.998 128.738L114.521 124.223ZM81.6114 101.223C82.2669 99.034 83.1869 97.1212 84.3561 95.3962L84.3101 95.469C85.4332 93.7248 86.9512 92.3218 88.7414 91.3635L88.8066 91.3328C89.2551 91.1297 89.7802 91.0108 90.3361 91.0108C91.0299 91.0108 91.6816 91.1987 92.2412 91.5207L92.2221 91.5092C92.7281 91.7737 93.1497 92.1378 93.4717 92.5787L93.4794 92.5902C93.7477 92.8815 93.9394 93.2495 94.0161 93.6558L94.0199 93.6712C94.0697 93.813 94.0966 93.9778 94.0966 94.1503C94.0966 94.4033 94.0352 94.641 93.9241 94.848L93.9279 94.8403C93.7937 95.1087 93.5216 95.2888 93.2072 95.2927C92.9057 95.2927 92.516 94.8735 92.0381 94.0353C91.3174 92.7167 90.2952 92.5365 88.9714 93.4948C87.6834 94.4647 86.6484 95.6952 85.9316 97.1173L85.9047 97.1748C85.0806 98.6123 84.3522 100.28 83.8079 102.032L83.7581 102.212C83.5012 102.833 83.3556 103.557 83.3556 104.316C83.3556 104.88 83.4361 105.42 83.5894 105.934L83.5779 105.896C83.7619 106.221 84.1031 106.44 84.4979 106.44C85.6364 106.214 86.6024 105.597 87.2771 104.742L87.2847 104.73C88.2009 103.864 89.0021 102.89 89.6767 101.825L89.7151 101.763L90.6121 99.0685C90.8523 98.4705 91.2126 98.1715 91.6931 98.1715C92.1735 98.1715 92.4137 98.5012 92.4137 99.1605C92.3332 100.188 92.0764 101.135 91.6701 101.997L91.6931 101.947C91.3212 102.821 90.9494 103.898 90.6542 105.006L90.6121 105.186L89.1631 109.848C89.0366 110.227 88.8832 110.553 88.6992 110.856L88.7107 110.833C88.6034 111.078 88.3734 111.255 88.1012 111.285C88.0936 111.285 88.0782 111.285 88.0667 111.285C87.8559 111.285 87.6681 111.178 87.5607 111.017C87.4764 110.814 87.4266 110.576 87.4266 110.331C87.4266 110.189 87.4419 110.051 87.4726 109.921L87.4687 109.932C87.8751 108.115 88.3389 106.574 88.8986 105.087L88.8181 105.332L87.5607 106.589C86.6062 107.663 85.2837 108.391 83.7964 108.583L83.7657 108.587C83.7274 108.59 83.6852 108.59 83.6392 108.59C83.1562 108.59 82.7039 108.456 82.3167 108.222L82.3282 108.23L83.7657 122.433C83.8859 123.031 85.4435 123.69 88.4386 124.411C91.6969 125.212 95.4382 125.668 99.2869 125.668H99.6012H99.5859H99.8849C103.734 125.668 107.475 125.208 111.059 124.345L110.737 124.411C113.615 123.69 115.172 123.031 115.41 122.433L117.388 105.531L117.028 105.712C116.161 106.678 115.149 107.486 114.018 108.111L113.961 108.142C113.509 108.345 112.98 108.46 112.424 108.46C112.209 108.46 111.998 108.441 111.791 108.41L111.814 108.414C111.086 108.294 110.722 107.934 110.722 107.333C111.097 106.049 111.784 104.956 112.696 104.102L112.7 104.098L113.24 103.201C113.838 102.603 114.137 102.153 114.137 101.851C114.137 101.55 113.897 101.43 113.417 101.491C112.853 101.587 112.362 101.844 111.979 102.212C111.404 102.741 110.898 103.331 110.469 103.975L110.446 104.01C109.894 104.811 109.384 105.727 108.955 106.689L108.912 106.796L108.192 108.234L106.428 113.263C106.202 113.608 105.899 113.88 105.543 114.068L105.531 114.076C105.405 114.16 105.248 114.214 105.083 114.214C104.918 114.214 104.761 114.164 104.631 114.076C104.424 113.938 104.293 113.708 104.286 113.447L104.466 112.907C104.933 111.55 105.42 110.423 105.976 109.334L105.903 109.491L107.161 106.796C107.281 106.316 107.341 106.136 107.341 106.256C106.639 107.023 105.804 107.655 104.872 108.123L104.822 108.146C104.439 108.341 103.987 108.456 103.507 108.456C103.335 108.456 103.17 108.441 103.005 108.414L103.024 108.418C102.572 108.322 102.223 107.973 102.127 107.529V107.521L101.947 107.161C101.192 107.931 100.146 108.41 98.9841 108.418C98.2046 108.298 98.0002 107.4 98.3707 105.723C97.7037 107.295 96.1896 108.383 94.4186 108.418C94.3534 108.429 94.2729 108.433 94.2001 108.433C93.5791 108.433 93.0424 108.061 92.8009 107.529L92.7971 107.517C92.7817 107.345 92.7741 107.145 92.7741 106.942C92.7741 105.639 93.0999 104.412 93.6787 103.339L93.6596 103.381V103.201C94.0199 102.363 94.439 101.404 94.9169 100.326C95.2772 99.6052 95.7564 99.3649 96.3544 99.6052H96.5346C96.8949 99.8454 96.955 100.325 96.7147 101.043L96.1742 101.763C95.7526 102.549 95.3309 103.496 94.9706 104.477L94.9169 104.642C94.6767 105.721 94.7661 106.26 95.1852 106.26C95.6797 106.244 96.1436 106.114 96.5499 105.892L96.5346 105.899C97.3357 105.317 97.9759 104.562 98.4091 103.688L98.4244 103.653C98.8346 102.955 99.1719 102.147 99.3981 101.292L99.4134 101.223L99.7737 100.303C100.014 99.7048 100.284 99.4058 100.583 99.4058C100.901 99.4097 101.188 99.5477 101.391 99.7623C101.632 100.003 101.632 100.422 101.391 101.02L100.134 103.895C99.8542 104.523 99.6626 105.252 99.5974 106.014V106.041C99.5974 106.522 100.017 106.582 100.855 106.221C101.338 106.034 101.752 105.792 102.12 105.493L102.112 105.501C102.232 105.02 103.191 102.443 104.987 97.769L106.785 93.2725C106.95 92.7473 107.433 92.3717 108.004 92.3717H108.046C108.257 92.41 108.437 92.5058 108.583 92.6438C108.823 92.8227 108.883 93.1524 108.763 93.6328L105.516 101.399C104.678 103.556 104.167 104.931 103.983 105.524C103.799 106.117 103.835 106.423 104.09 106.444C104.928 106.444 106.307 105.422 108.226 103.377L108.406 103.197L108.947 101.94C109.073 101.319 109.323 100.77 109.671 100.299L109.664 100.31C109.904 100.07 110.084 99.9502 110.204 99.9502C110.685 99.9502 110.925 100.155 110.925 100.563V100.59C110.925 100.997 110.86 101.391 110.737 101.756L110.745 101.729L111.642 100.832C112.355 100 113.405 99.4748 114.578 99.4748C114.651 99.4748 114.728 99.4787 114.8 99.4825H114.789C115.548 99.5362 116.142 100.165 116.142 100.931C116.142 100.962 116.142 100.989 116.138 101.02C115.74 102.653 114.919 104.052 113.804 105.152L113.443 105.332C113.221 105.643 113.037 105.999 112.911 106.382L112.903 106.409C112.903 106.529 113.023 106.589 113.263 106.589C113.758 106.459 114.183 106.206 114.521 105.869L117.587 103.174L120.282 78.7212C116.832 79.9747 112.849 80.6992 108.698 80.6992C108.598 80.6992 108.498 80.6992 108.395 80.6992H108.41C105.83 80.8717 102.817 80.9675 99.7776 80.9675C96.7377 80.9675 93.7286 80.8678 90.7386 80.6762L91.1449 80.6953C91.0606 80.6953 90.9609 80.6953 90.8574 80.6953C86.7059 80.6953 82.7231 79.9708 79.0316 78.6407L79.2731 78.7173L81.6114 101.223ZM120.631 77.1265H120.451C120.451 76.646 119.342 76.1669 117.123 75.689C114.605 75.1677 111.611 74.7843 108.56 74.6157L108.399 74.608L110.197 67.248L120.447 56.277C120.807 56.0368 120.508 55.4975 119.55 54.6593C119.27 54.3565 118.902 54.138 118.484 54.0498L118.469 54.046C118.109 53.9872 117.868 54.0166 117.748 54.1342L106.789 65.6073L104.45 74.4163L99.7776 74.2323C99.4479 74.2285 99.0607 74.2247 98.6697 74.2247C93.8589 74.2247 89.1286 74.5543 84.4941 75.1907L85.0307 75.1293C80.9572 75.7273 78.9204 76.3867 78.9204 77.1073C78.9204 78.3059 82.5161 79.1454 89.7074 79.6258C92.7204 79.8558 96.2356 79.9862 99.7776 79.9862C103.32 79.9862 106.835 79.8558 110.312 79.599L109.848 79.6258C117.039 79.1505 120.635 78.3123 120.635 77.1112L120.631 77.1265ZM108.058 78.0235C108.058 78.1436 107.817 78.2944 107.337 78.4758C106.862 78.6483 106.31 78.748 105.735 78.748C105.696 78.748 105.658 78.748 105.623 78.748C105.593 78.748 105.558 78.748 105.52 78.748C104.945 78.748 104.397 78.6483 103.883 78.4682L103.918 78.4797C103.437 78.3008 103.197 78.15 103.197 78.0273C103.197 77.9047 103.377 77.7845 103.737 77.667L103.557 77.8472C103.557 78.0874 104.217 78.2075 105.535 78.2075C106.854 78.2075 107.513 78.0874 107.513 77.8472L107.693 77.667C107.926 77.7794 108.042 77.8944 108.042 78.012L108.058 78.0235Z" fill="white"/>
</g>
<defs>
<clipPath id="clip0_121_476">
<rect width="92" height="92" fill="white" transform="translate(54 54)"/>
</clipPath>
</defs>
</svg>
