<svg width="200" height="200" viewBox="0 0 200 200" fill="none" xmlns="http://www.w3.org/2000/svg">
<path d="M94.0928 100.238C94.0928 110.35 94.8153 118.847 89.8258 123.876C87.0194 126.705 82.5913 128.372 77.143 128.372C68.2067 128.372 63.245 124.018 60.0781 117.994C63.1269 116.047 66.2425 114.166 69.418 112.345C70.7136 115.968 75.0884 120.042 80.0255 117.534C83.1547 115.943 82.7934 111.122 82.7934 105.888C82.7934 95.0207 82.7934 82.4846 82.7934 72.6802C82.7836 72.5171 82.7739 72.3541 82.9078 72.3343C86.6369 72.3343 90.3653 72.3343 94.093 72.3343C94.0928 81.0679 94.0928 90.9486 94.0928 100.238ZM122.457 93.6663C119.606 92.4454 116.062 91.001 115.193 88.3613C114.22 85.4029 115.88 82.9655 117.73 82.1361C121.796 80.3099 126.642 83.3168 127.646 86.4019C130.705 84.5805 133.755 82.7482 136.525 80.6369C133.271 75.2332 128.501 71.3647 119.805 71.643C115.018 71.796 111.422 73.3074 108.737 75.563C106.116 77.7638 104.093 80.8527 103.778 85.2488C102.836 98.4069 112.682 101.766 121.074 105.426C123.719 106.58 126.66 107.746 127.877 110.038C130.386 114.77 125.941 117.892 122.112 118.226C115.965 118.761 111.821 115.165 109.428 111.422C106.438 113.276 103.188 114.867 100.319 116.842C104.309 123.858 110.852 128.401 121.074 128.372C131.502 128.342 139.233 123.315 139.868 113.844C140.731 100.972 131.087 97.3605 122.457 93.6663Z" fill="white"/>
</svg>
