<svg width="200" height="200" viewBox="0 0 200 200" fill="none" xmlns="http://www.w3.org/2000/svg">
<path d="M97.7732 66.0183C97.627 66.0316 97.1617 66.0781 96.7429 66.1113C87.0847 66.982 78.0379 72.1926 72.3081 80.2012C69.1175 84.6541 67.0768 89.7051 66.3058 95.0553C66.0332 96.9228 66 97.4745 66 100.007C66 102.539 66.0332 103.09 66.3058 104.958C68.1537 117.725 77.2403 128.452 89.564 132.427C91.7709 133.138 94.0974 133.623 96.7429 133.915C97.7732 134.028 102.227 134.028 103.257 133.915C107.824 133.41 111.692 132.28 115.508 130.333C116.093 130.034 116.206 129.954 116.126 129.888C116.073 129.848 113.58 126.505 110.589 122.464L105.152 115.12L98.3382 105.038C94.5892 99.4949 91.505 94.9622 91.4784 94.9622C91.4518 94.9556 91.4252 99.4351 91.4119 104.905C91.392 114.482 91.3853 114.867 91.2657 115.093C91.0929 115.419 90.9599 115.552 90.6807 115.698C90.468 115.805 90.2819 115.824 89.2782 115.824H88.1282L87.8225 115.632C87.6231 115.505 87.4768 115.339 87.3771 115.147L87.2375 114.847L87.2508 101.522L87.2708 88.1898L87.4768 87.9306C87.5832 87.7911 87.8092 87.6116 87.9687 87.5252C88.2413 87.3923 88.3476 87.379 89.4976 87.379C90.8536 87.379 91.0796 87.4322 91.4319 87.8176C91.5316 87.924 95.2207 93.4801 99.6344 100.173C104.048 106.865 110.084 116.004 113.048 120.49L118.432 128.645L118.705 128.465C121.118 126.897 123.67 124.664 125.691 122.338C129.992 117.4 132.764 111.378 133.694 104.958C133.967 103.09 134 102.539 134 100.007C134 97.4745 133.967 96.9228 133.694 95.0553C131.846 82.288 122.76 71.5612 110.436 67.5868C108.262 66.8823 105.949 66.3971 103.357 66.1047C102.719 66.0382 98.3249 65.9651 97.7732 66.0183ZM111.692 86.5815C112.011 86.741 112.271 87.0467 112.364 87.3657C112.417 87.5385 112.43 91.2338 112.417 99.5614L112.397 111.511L110.29 108.281L108.176 105.051V96.3646C108.176 90.7486 108.203 87.5917 108.242 87.4388C108.349 87.0666 108.581 86.7742 108.9 86.6014C109.173 86.4618 109.273 86.4485 110.316 86.4485C111.3 86.4485 111.473 86.4618 111.692 86.5815Z" fill="white"/>
</svg>
