<svg width="200" height="200" viewBox="0 0 200 200" fill="none" xmlns="http://www.w3.org/2000/svg">
<path d="M119.737 83.8228C119.712 84.2103 119.532 84.5528 119.26 84.7903L119.257 84.7928C118.93 85.1503 118.492 85.4003 117.997 85.4878L117.985 85.4903C117.915 85.5003 117.832 85.5078 117.75 85.5078C117.747 85.5078 117.742 85.5078 117.74 85.5078C116.96 85.5078 116.29 85.0353 116.005 84.3578L116 84.3453C115.925 83.7928 116.825 83.3753 117.752 83.2453C118.68 83.1153 119.662 83.2728 119.737 83.8228ZM94.9623 85.1078C94.6598 85.8853 93.9173 86.4278 93.0473 86.4278C93.0373 86.4278 93.0298 86.4278 93.0198 86.4278H93.0223C92.9323 86.4278 92.8473 86.4203 92.7598 86.4103H92.7698C92.1173 86.2928 91.5623 85.9328 91.1948 85.4303L91.1898 85.4228C90.9848 85.1878 90.8598 84.8753 90.8598 84.5378V84.5353C90.8898 84.3428 90.9973 84.1778 91.1473 84.0728L91.1498 84.0703C91.5298 83.8603 91.9848 83.7378 92.4698 83.7378C92.6773 83.7378 92.8798 83.7603 93.0748 83.8028L93.0573 83.8003C94.0448 83.9378 95.0648 84.4053 94.9673 85.1078H94.9623ZM122.507 104.215L122.24 103.88L122.13 103.743C123.272 101.628 123.942 99.1103 123.942 96.4403C123.942 95.2203 123.802 94.0353 123.537 92.8953L123.557 93.0003C123.382 91.8678 123.28 90.5603 123.28 89.2303C123.28 89.2128 123.28 89.1953 123.28 89.1778C123.337 87.9253 123.47 86.7553 123.675 85.6078L123.65 85.7728C123.872 84.6128 124 83.2778 124 81.9128C124 81.7853 124 81.6603 123.997 81.5353V81.5553C124.027 81.4328 124.045 81.2953 124.045 81.1503C124.045 81.0828 124.04 81.0178 124.035 80.9528V80.9603C123.035 77.0103 121.157 73.5878 118.615 70.7778L118.632 70.7978C116.355 68.1278 113.555 65.9753 110.382 64.4903L110.232 64.4278C111.972 64.0553 113.972 63.8428 116.022 63.8428C116.21 63.8428 116.397 63.8453 116.585 63.8478H116.557C116.67 63.8453 116.8 63.8428 116.932 63.8428C122.877 63.8428 128.172 66.6153 131.597 70.9378L131.627 70.9778C131.697 71.0678 131.767 71.1703 131.827 71.2778L131.835 71.2903C134.095 75.5253 130.972 90.8953 122.505 104.22L122.507 104.215ZM121.792 82.3053C121.752 83.4428 121.632 84.5203 121.442 85.5728L121.462 85.4353C121.267 86.4978 121.127 87.7628 121.07 89.0478L121.067 89.1103C121.067 89.1528 121.067 89.2003 121.067 89.2503C121.067 90.6678 121.172 92.0603 121.377 93.4203L121.357 93.2678C121.57 94.2103 121.692 95.2903 121.692 96.4028C121.692 98.3103 121.332 100.135 120.675 101.808L120.71 101.708C120.52 101.38 120.322 100.985 120.15 100.575L120.122 100.503C119.957 100.105 119.6 99.4628 119.107 98.5778C117.185 95.1278 112.68 87.0503 114.985 83.7553C116.17 82.0603 119.175 81.9878 121.79 82.3078L121.792 82.3053ZM120.015 111.268C119.887 108.67 120.855 108.398 121.88 108.11C122.021 108.072 122.162 108.029 122.302 107.983C122.427 108.093 122.565 108.2 122.707 108.295L122.72 108.303C124.27 108.985 126.075 109.38 127.975 109.38C129.455 109.38 130.877 109.14 132.207 108.695L132.112 108.723C131.252 109.455 130.272 110.083 129.212 110.568L129.135 110.6C127.525 111.26 125.657 111.673 123.702 111.735H123.677C123.38 111.78 123.037 111.808 122.69 111.808C121.725 111.808 120.805 111.608 119.972 111.248L120.017 111.265L120.015 111.268ZM117.232 116.333C117.18 116.885 117.12 117.508 117.04 118.195L116.585 119.565C116.55 119.665 116.53 119.78 116.527 119.9C116.53 119.968 116.53 120.045 116.53 120.123C116.53 121.01 116.397 121.87 116.152 122.678L116.167 122.615C115.877 123.588 115.677 124.715 115.61 125.878L115.607 125.918C115.477 130.128 112.22 133.535 108.087 133.903L108.055 133.905C103.32 134.92 102.48 132.353 101.74 130.088C101.665 129.851 101.585 129.615 101.5 129.38C101.1 127.75 100.87 125.878 100.87 123.953C100.87 123.053 100.92 122.165 101.017 121.29L101.007 121.398C101.022 121.078 101.03 120.7 101.03 120.323C101.03 117.758 100.645 115.283 99.9273 112.953L99.9748 113.13C99.9881 112.214 100.008 111.285 100.035 110.345C100.035 110.338 100.035 110.325 100.035 110.315C100.035 110.2 100.017 110.09 99.9848 109.985L99.9873 109.993C99.9523 109.743 99.9048 109.523 99.8423 109.31L99.8498 109.343C99.4973 108.04 98.6098 106.99 97.4398 106.433L97.4123 106.42C96.9723 106.2 96.4523 106.07 95.8998 106.07C95.6398 106.07 95.3873 106.098 95.1448 106.153L95.1673 106.148C95.4873 104.973 95.8173 104.013 96.1973 103.078L96.1323 103.26L96.2973 102.818C96.4823 102.318 96.7148 101.8 96.9623 101.253C98.3273 98.4428 99.1248 95.1403 99.1248 91.6503C99.1248 89.3053 98.7648 87.0453 98.0973 84.9203L98.1398 85.0778C97.6823 82.3078 95.3023 80.2203 92.4373 80.2203C91.9873 80.2203 91.5473 80.2728 91.1273 80.3703L91.1673 80.3628C89.1773 80.6228 87.3773 81.2078 85.7398 82.0678L85.8273 82.0253C85.6206 82.1303 85.4165 82.2386 85.2148 82.3503C85.4423 76.9828 87.4548 72.1253 90.6673 68.3128L90.6373 68.3478C90.9323 68.0503 91.2423 67.7678 91.5623 67.5028L91.5848 67.4853C91.7573 67.4503 91.9098 67.3803 92.0398 67.2828L92.0373 67.2853C94.2698 65.6503 97.0723 64.6678 100.105 64.6678C100.347 64.6678 100.587 64.6728 100.825 64.6853L100.792 64.6828C102.107 64.7028 103.377 64.7928 104.627 64.9528L104.46 64.9353C109.567 65.9178 113.927 68.5928 117.04 72.3428L117.067 72.3778C118.937 74.5503 120.452 77.0953 121.482 79.8728L121.537 80.0453C120.895 79.8728 120.157 79.7728 119.397 79.7728C116.94 79.7728 114.727 80.8128 113.172 82.4753L113.167 82.4803C110.067 86.9128 114.865 95.5178 117.17 99.6528C117.592 100.41 117.957 101.065 118.072 101.343C118.722 102.845 119.54 104.138 120.522 105.285L120.505 105.265C120.722 105.538 120.932 105.8 121.095 106.03C119.842 106.39 117.592 107.225 117.797 111.395C117.76 111.883 117.665 112.79 117.537 113.94C117.402 114.613 117.292 115.433 117.23 116.265L117.225 116.335L117.232 116.333ZM94.2273 102.048L94.0623 102.488C93.7198 103.308 93.3648 104.35 93.0698 105.418L93.0223 105.62C90.7898 105.588 88.7848 104.633 87.3698 103.118L87.3648 103.113C85.7848 101.445 84.8148 99.1878 84.8148 96.7028C84.8148 96.2078 84.8523 95.7228 84.9273 95.2478L84.9198 95.3003C85.1623 93.5003 85.3023 91.4228 85.3023 89.3103C85.3023 88.0553 85.2523 86.8128 85.1573 85.5828L85.1673 85.7453C85.1523 85.4778 85.1373 85.2428 85.1298 85.0578C87.1423 83.5303 89.6898 82.6078 92.4523 82.6078C92.7823 82.6078 93.1073 82.6203 93.4298 82.6453L93.3873 82.6428C94.7723 82.9653 95.8148 84.1128 95.9798 85.5253L95.9823 85.5403C96.5773 87.3603 96.9198 89.4553 96.9198 91.6278C96.9198 94.7928 96.1923 97.7878 94.8973 100.458L94.9498 100.338C94.6873 100.92 94.4398 101.47 94.2273 102.043V102.048ZM87.6848 114.508C87.1723 114.378 86.7223 114.188 86.3123 113.94L86.3348 113.953C86.7648 113.77 87.2723 113.618 87.7973 113.52L87.8448 113.513C91.8548 112.688 92.4723 112.105 93.8248 110.388C94.1348 109.995 94.4848 109.548 94.9723 109.005C95.0723 108.893 95.1523 108.758 95.1998 108.608L95.2023 108.6C95.7348 108.128 96.0523 108.258 96.5673 108.47C97.1348 108.783 97.5548 109.31 97.7173 109.938L97.7198 109.955C97.7773 110.118 97.8123 110.303 97.8123 110.498C97.8123 110.81 97.7248 111.103 97.5748 111.35L97.5798 111.343C95.9673 113.548 93.3898 114.965 90.4823 114.965C89.4823 114.965 88.5198 114.798 87.6223 114.488L87.6848 114.508ZM68.9173 98.6153C67.2898 93.6528 65.9648 87.7653 65.1823 81.7053L65.1298 81.2078C64.9773 80.4028 64.8923 79.4753 64.8923 78.5303C64.8923 74.0153 66.8648 69.9628 69.9948 67.1878L70.0098 67.1753C75.7473 63.1178 85.1298 65.4853 89.0923 66.7678L89.0623 66.7978C85.2248 71.4778 82.8973 77.5278 82.8973 84.1178C82.8973 84.3428 82.8998 84.5678 82.9048 84.7928V84.7603C82.9048 85.0178 82.9248 85.3828 82.9548 85.8828C83.0373 86.9078 83.0848 88.1028 83.0848 89.3103C83.0848 91.3153 82.9548 93.2903 82.6998 95.2278L82.7248 95.0003C82.6423 95.5153 82.5973 96.1103 82.5973 96.7153C82.5973 99.7928 83.8023 102.59 85.7698 104.658L85.7648 104.653C86.0165 104.916 86.279 105.164 86.5523 105.395C85.4698 106.555 83.1148 109.12 80.6098 112.135C78.8373 114.268 77.6123 113.858 77.2098 113.725C75.4973 112.805 74.1548 111.378 73.3648 109.648L73.3423 109.593C71.6323 106.463 70.1273 102.823 69.0173 99.0128L68.9198 98.6203L68.9173 98.6153ZM135.112 107.508C135.065 107.365 135.005 107.243 134.932 107.13L134.937 107.138C134.502 106.315 133.447 106.07 131.79 106.413C126.625 107.478 124.625 106.823 123.9 106.353C127.942 100.223 131.195 93.1228 133.277 85.5378L133.4 85.0153C134.247 81.7328 135.892 74.0078 133.782 70.2328C133.635 69.9528 133.477 69.7128 133.302 69.4878L133.31 69.4978C129.402 64.6103 123.44 61.5078 116.752 61.5078C116.562 61.5078 116.372 61.5103 116.185 61.5153H116.212C116.107 61.5128 115.985 61.5128 115.86 61.5128C112.505 61.5128 109.277 62.0628 106.265 63.0753L106.477 63.0128C105.942 62.9128 105.405 62.8278 104.865 62.7578C103.645 62.5253 102.232 62.3803 100.787 62.3578H100.767C100.56 62.3478 100.317 62.3428 100.072 62.3428C96.7848 62.3428 93.7273 63.3278 91.1798 65.0203L91.2398 64.9828C88.5623 63.9803 76.2798 59.8428 68.6773 65.2278C64.9548 68.4028 62.6123 73.0953 62.6123 78.3378C62.6123 79.3503 62.6998 80.3428 62.8673 81.3078L62.8523 81.2053C63.6898 87.9503 65.0498 94.0203 66.9323 99.8578L66.7348 99.1478C67.9673 103.438 69.4923 107.15 71.3648 110.648L71.2123 110.338C72.2948 112.798 74.1673 114.748 76.5023 115.9L76.5673 115.93C76.9873 116.053 77.4698 116.125 77.9698 116.125C79.8248 116.125 81.4498 115.148 82.3598 113.678L82.3723 113.655C84.8748 110.645 87.3398 107.95 88.4473 106.76C89.7023 107.458 91.1898 107.888 92.7748 107.938H92.7898L92.7923 107.95C92.529 108.264 92.2715 108.582 92.0198 108.905C90.9598 110.25 90.7398 110.528 87.3323 111.23C86.3623 111.43 83.7873 111.96 83.7498 113.765C83.7498 113.775 83.7498 113.785 83.7498 113.798C83.7498 114.165 83.8573 114.508 84.0423 114.795L84.0373 114.788C84.8173 115.775 85.9148 116.483 87.1723 116.758L87.2098 116.765C88.2073 117.09 89.3573 117.278 90.5473 117.278C93.2973 117.278 95.8123 116.283 97.7573 114.633L97.7423 114.645C97.6823 115.69 97.6498 116.915 97.6498 118.148C97.6498 122.53 98.0773 126.815 98.8898 130.96L98.8223 130.543C99.7773 133.975 102.862 136.46 106.532 136.493H106.537C107.46 136.485 108.352 136.378 109.212 136.183L109.13 136.198C113.927 135.77 117.707 131.935 118.047 127.15L118.05 127.12C118.52 124.4 119.305 118.138 119.732 114.308C119.752 114.145 119.817 114 119.912 113.88L119.91 113.883C119.912 113.88 120.127 113.735 121.245 113.978L121.382 114L122.175 114.07L122.222 114.073C122.46 114.083 122.74 114.09 123.02 114.09C125.58 114.09 128.025 113.59 130.257 112.68L130.13 112.725C132.142 111.793 135.77 109.5 135.112 107.508Z" fill="white"/>
</svg>
