<svg width="200" height="200" viewBox="0 0 200 200" fill="none" xmlns="http://www.w3.org/2000/svg">
<path d="M133.597 121.78L106.162 63.5166C105.467 62.0558 104.028 61.0934 102.413 61.0098C100.793 60.9013 99.2485 61.7022 98.404 63.0878L68.6473 111.284C67.7235 112.769 67.743 114.655 68.6972 116.122L83.2455 138.651C84.3758 140.388 86.5141 141.174 88.5004 140.584L130.719 128.095C132.006 127.719 133.065 126.804 133.625 125.587C134.177 124.375 134.167 122.982 133.599 121.778L133.597 121.78ZM127.455 124.278L91.6294 134.872C90.5366 135.197 89.4876 134.25 89.7149 133.147L102.514 71.8607C102.754 70.7139 104.337 70.5325 104.838 71.5934L128.532 121.909C128.744 122.363 128.746 122.887 128.539 123.343C128.331 123.798 127.934 124.14 127.453 124.278H127.455Z" fill="white"/>
</svg>
