<svg width="200" height="200" viewBox="0 0 200 200" fill="none" xmlns="http://www.w3.org/2000/svg">
<path d="M106.697 99.9398C106.697 96.3538 103.699 93.4463 100 93.4463C96.3015 93.4463 93.3027 96.3538 93.3027 99.9398C93.3027 103.526 96.3015 106.434 100 106.434C103.699 106.434 106.697 103.526 106.697 99.9398Z" fill="white"/>
<path fill-rule="evenodd" clip-rule="evenodd" d="M121.751 87.8842C123.165 82.3119 124.943 71.9787 118.676 68.4754C112.438 64.9874 104.321 71.6711 100.035 75.6829C95.761 71.711 87.4157 65.0559 81.1541 68.5703C74.9188 72.0701 76.8416 82.232 78.2872 87.8392C72.4708 89.441 62.5 92.891 62.5 99.9397C62.5 106.968 72.4604 110.722 78.2424 112.322C76.7914 117.96 74.9649 127.977 81.2082 131.469C87.4932 134.983 95.8125 128.486 100.139 124.43C104.452 128.466 112.492 135.005 118.731 131.503C124.989 127.991 123.359 117.796 121.913 112.156C127.518 110.552 137.5 106.881 137.5 99.9397C137.5 92.9587 127.476 89.4807 121.751 87.8842ZM121.041 109.167C120.091 106.254 118.81 103.156 117.243 99.9552C118.739 96.8302 119.97 93.772 120.893 90.8772C125.09 92.057 134.296 94.7532 134.296 99.9397C134.296 105.175 125.462 107.897 121.041 109.167ZM117.125 128.815C112.47 131.427 105.555 125.174 102.369 122.202C104.483 119.961 106.595 117.355 108.656 114.462C112.282 114.15 115.708 113.64 118.814 112.944C119.832 116.933 121.801 126.191 117.125 128.815ZM82.8091 128.778C78.1536 126.175 80.2814 117.236 81.3489 113.083C84.4208 113.742 87.8215 114.216 91.456 114.502C93.5308 117.333 95.704 119.935 97.894 122.214C95.1883 124.752 87.4863 131.392 82.8091 128.778ZM65.7037 99.9397C65.7037 94.685 74.8552 92.0082 79.1476 90.8315C80.0863 93.7912 81.3174 96.886 82.8031 100.015C81.2981 103.191 80.0494 106.335 79.1021 109.33C75.0092 108.194 65.7037 105.198 65.7037 99.9397ZM82.7592 71.2588C87.4337 68.6354 94.6868 75.0246 97.7898 77.9003C95.611 80.1688 93.4577 82.7515 91.4007 85.5662C87.8735 85.8832 84.4969 86.3922 81.3927 87.0742C80.2281 82.5518 78.0898 73.8795 82.7592 71.2588ZM110.948 88.9427C113.341 89.2355 115.634 89.625 117.787 90.1015C117.141 92.11 116.335 94.2102 115.386 96.3632C114.011 93.8332 112.535 91.354 110.948 88.9427ZM100.036 80.1202C101.513 81.6724 102.994 83.4057 104.45 85.2862C101.496 85.1507 98.5383 85.1502 95.585 85.2842C97.0423 83.4212 98.535 81.6904 100.036 80.1202ZM84.6412 96.361C83.7082 94.2155 82.91 92.106 82.2581 90.0687C84.398 89.6045 86.68 89.225 89.0575 88.937C87.4665 91.343 85.9927 93.8212 84.6412 96.361ZM89.1258 111.164C86.6698 110.898 84.3532 110.538 82.2139 110.087C82.8761 108.014 83.6919 105.859 84.6449 103.667C86.015 106.233 87.5113 108.735 89.1258 111.164ZM100.125 119.979C98.606 118.39 97.0912 116.633 95.612 114.743C98.582 114.856 101.558 114.856 104.528 114.727C103.067 116.652 101.592 118.412 100.125 119.979ZM115.417 103.555C116.419 105.771 117.264 107.914 117.936 109.952C115.761 110.433 113.413 110.821 110.939 111.109C112.537 108.652 114.037 106.134 115.417 103.555ZM106.868 111.485C102.325 111.8 97.754 111.796 93.2095 111.511C90.6273 107.854 88.3285 104.007 86.3442 100.014C88.319 96.0297 90.601 92.191 93.171 88.5395C97.7188 88.2062 102.295 88.2052 106.842 88.5415C109.39 92.1927 111.669 96.0215 113.689 99.9702C111.693 103.953 109.399 107.799 106.868 111.485ZM117.076 71.1665C121.751 73.7813 119.67 83.0681 118.649 87.1065C115.537 86.4102 112.158 85.8922 108.621 85.5702C106.56 82.7251 104.424 80.1379 102.281 77.8987C105.424 74.961 112.445 68.5772 117.076 71.1665Z" fill="white"/>
</svg>
