<svg width="200" height="200" viewBox="0 0 200 200" fill="none" xmlns="http://www.w3.org/2000/svg">
<path d="M100.46 107.256C99.167 107.85 97.7507 108.624 94.9154 110.18C93.8404 110.784 92.717 111.389 91.6715 111.959C91.599 111.886 91.5237 111.795 91.4512 111.72C85.8424 105.727 75.4686 101.494 75.9093 93.4447C76.0733 90.5127 77.0811 82.8157 95.8318 73.4685C111.263 65.8629 123.543 67.9699 125.663 72.6435C128.711 79.3058 119.081 91.7032 103.144 93.5012C101.381 93.8589 99.559 93.8157 97.8141 93.3747C96.0692 92.9337 94.4457 92.1062 93.0637 90.9534C92.2198 90.037 92.0935 89.9832 91.7817 90.166C91.2684 90.4347 91.599 91.2652 91.7817 91.7409C92.3896 92.8415 93.2121 93.8091 94.2004 94.5865C95.1887 95.3638 96.3228 95.9351 97.5357 96.2666C103.807 97.6222 110.346 96.9745 116.23 94.4149C125.889 90.6766 133.43 80.284 131.221 71.5712C129.004 62.7374 114.341 59.8241 100.468 64.753C91.7798 67.6807 83.7529 72.2896 76.8446 78.3168C69.2013 85.4655 67.992 91.679 68.4865 94.2805C70.2656 103.517 82.999 109.529 88.1052 113.983C87.8365 114.13 87.6107 114.251 87.4092 114.367C84.8614 115.633 75.1488 120.709 72.7274 126.079C69.978 132.164 73.1681 136.525 75.2751 137.111C78.4503 137.872 81.7839 137.622 84.8101 136.396C87.8364 135.17 90.4043 133.03 92.1553 130.274C93.6422 127.989 94.5553 125.378 94.8168 122.665C95.0784 119.951 94.6807 117.214 93.6576 114.687C94.2612 114.205 94.905 113.776 95.5819 113.405C96.8826 112.636 98.1215 111.878 99.2207 111.292C102.984 109.53 107.091 108.622 111.247 108.634C119.971 109.661 121.694 115.103 121.363 117.396C121.208 118.209 120.881 118.98 120.404 119.656C119.926 120.333 119.31 120.899 118.595 121.317C117.99 121.701 117.789 121.83 117.842 122.104C117.915 122.507 118.208 122.489 118.721 122.416C120.032 122.002 121.187 121.201 122.034 120.118C122.881 119.036 123.381 117.722 123.467 116.35C123.736 110.975 118.611 105.079 109.538 105.133C106.821 105.137 104.132 105.673 101.621 106.71C101.218 106.877 100.826 107.056 100.446 107.248L100.46 107.256ZM87.4925 128.323C84.5953 131.476 80.5641 132.666 78.8226 131.658C76.9414 130.583 77.6858 125.92 81.2414 122.585C83.3472 120.688 85.6232 118.989 88.0407 117.509C88.4627 117.24 89.0862 116.885 89.836 116.434C89.965 116.361 90.0375 116.323 90.0375 116.323L90.4783 116.055C91.1124 118.181 91.1701 120.437 90.6455 122.593C90.1208 124.749 89.0327 126.726 87.4925 128.323Z" fill="white"/>
</svg>
