<svg width="200" height="200" viewBox="0 0 200 200" fill="none" xmlns="http://www.w3.org/2000/svg">
<path fill-rule="evenodd" clip-rule="evenodd" d="M99.9998 80.1201C91.1098 80.1201 85.5565 84.5368 83.3332 93.3735C86.6665 88.9568 90.5565 87.3001 94.9998 88.4035C97.5365 89.0335 99.3498 90.8635 101.353 92.8868C104.623 96.1835 108.407 100 116.667 100C125.557 100 131.11 95.5835 133.333 86.7468C130 91.1635 126.113 92.8201 121.667 91.7168C119.13 91.0868 117.317 89.2568 115.31 87.2335C112.043 83.9335 108.263 80.1201 99.9998 80.1201ZM83.3332 100C74.4432 100 68.8898 104.417 66.6665 113.253C69.9998 108.833 73.8898 107.18 78.3332 108.283C80.8698 108.913 82.6832 110.743 84.6898 112.767C87.9565 116.063 91.7398 119.88 100.003 119.88C108.893 119.88 114.447 115.463 116.67 106.627C113.337 111.043 109.447 112.7 105.003 111.597C102.467 110.967 100.653 109.137 98.6498 107.113C95.3765 103.817 91.5932 100 83.3332 100Z" fill="white"/>
</svg>
