<svg width="200" height="200" viewBox="0 0 200 200" fill="none" xmlns="http://www.w3.org/2000/svg">
<g clip-path="url(#clip0_125_511)">
<path d="M100.002 60C77.9445 60 60.001 77.9426 60.001 99.9983C60.001 122.056 77.9453 140 100.001 140C122.056 140 139.998 122.056 139.998 99.9983C139.999 77.9435 122.057 60 100.002 60ZM64.0376 99.9983C64.0376 94.7855 65.1556 89.8346 67.1514 85.3633L84.3069 132.366C72.311 126.535 64.0376 114.234 64.0376 99.9983ZM100.002 135.964C96.4715 135.964 93.0642 135.446 89.8422 134.499L100.632 103.145L111.688 133.43C111.76 133.608 111.847 133.771 111.944 133.925C108.206 135.24 104.19 135.964 100.002 135.964ZM104.957 83.1372C107.122 83.0233 109.074 82.7947 109.074 82.7947C111.011 82.5653 110.784 79.7182 108.844 79.8321C108.844 79.8321 103.019 80.2884 99.2578 80.2884C95.725 80.2884 89.7849 79.8321 89.7849 79.8321C87.8464 79.7182 87.6203 82.6808 89.5579 82.7947C89.5579 82.7947 91.3933 83.0233 93.3293 83.1372L98.932 98.4896L91.0617 122.093L77.9677 83.138C80.1356 83.0249 82.0841 82.7955 82.0841 82.7955C84.0209 82.5669 83.7923 79.7182 81.853 79.8346C81.853 79.8346 76.0309 80.2909 72.2686 80.2909C71.5928 80.2909 70.7973 80.2735 69.9544 80.2477C76.3834 70.483 87.4382 64.0366 100.002 64.0366C109.366 64.0366 117.89 67.616 124.287 73.4771C124.131 73.4688 123.981 73.448 123.82 73.448C120.289 73.448 117.782 76.5254 117.782 79.8313C117.782 82.7938 119.49 85.3026 121.313 88.2652C122.682 90.6608 124.278 93.739 124.278 98.1837C124.278 101.263 123.096 104.834 121.54 109.81L117.954 121.797L104.957 83.1372ZM118.081 131.086L129.066 99.325C131.12 94.1953 131.801 90.0931 131.801 86.4431C131.801 85.1205 131.714 83.8911 131.558 82.7448C134.368 87.8678 135.966 93.7473 135.964 100C135.964 113.267 128.772 124.851 118.081 131.086Z" fill="white"/>
</g>
<defs>
<clipPath id="clip0_125_511">
<rect width="80" height="80" fill="white" transform="translate(60 60)"/>
</clipPath>
</defs>
</svg>
